<svg width="62" height="62" viewBox="0 0 62 62" fill="none" xmlns="http://www.w3.org/2000/svg">
<path d="M50.6333 54.25L34.3583 37.975C33.0667 39.0083 31.5812 39.8264 29.9021 40.4292C28.2229 41.0319 26.4361 41.3333 24.5417 41.3333C19.8486 41.3333 15.8767 39.708 12.626 36.4573C9.37535 33.2066 7.75 29.2347 7.75 24.5417C7.75 19.8486 9.37535 15.8767 12.626 12.626C15.8767 9.37535 19.8486 7.75 24.5417 7.75C29.2347 7.75 33.2066 9.37535 36.4573 12.626C39.708 15.8767 41.3333 19.8486 41.3333 24.5417C41.3333 26.4361 41.0319 28.2229 40.4292 29.9021C39.8264 31.5812 39.0083 33.0667 37.975 34.3583L54.25 50.6333L50.6333 54.25ZM24.5417 36.1667C27.7708 36.1667 30.5156 35.0365 32.776 32.776C35.0365 30.5156 36.1667 27.7708 36.1667 24.5417C36.1667 21.3125 35.0365 18.5677 32.776 16.3073C30.5156 14.0469 27.7708 12.9167 24.5417 12.9167C21.3125 12.9167 18.5677 14.0469 16.3073 16.3073C14.0469 18.5677 12.9167 21.3125 12.9167 24.5417C12.9167 27.7708 14.0469 30.5156 16.3073 32.776C18.5677 35.0365 21.3125 36.1667 24.5417 36.1667Z" fill="#1D1B20"/>
</svg>
